<svg width="16" height="16" viewBox="0 0 16 16" fill="none" xmlns="http://www.w3.org/2000/svg">
<g id="icon/&#233;&#163;&#158;&#230;&#156;&#186;">
<g id="Group 42">
<path id="Vector" d="M12.8681 14.7705C12.7218 14.7705 12.5756 14.7243 12.4781 14.6319L6.82397 10.6122C6.53151 10.3812 6.48277 10.0116 6.67774 9.68814C6.87271 9.36471 7.31139 9.36471 7.65259 9.54953L12.4294 12.9686L14.4278 2.7114L2.43713 7.28555L4.53306 8.16342L9.65104 5.52982C9.99224 5.345 10.3822 5.48361 10.5771 5.80704C10.7721 6.13046 10.6259 6.50009 10.2847 6.68491L4.87426 9.50332C4.67929 9.59573 4.43558 9.59573 4.24061 9.50332L0.389941 7.83999C0.146228 7.74759 0 7.51657 0 7.23935C0 6.96213 0.194971 6.73111 0.438684 6.6387L15.0615 1.04808C15.3052 0.955669 15.5489 1.00187 15.7439 1.14048C15.9388 1.27909 16.0363 1.51011 15.9876 1.74113L13.5504 14.2161C13.5017 14.4471 13.3555 14.6319 13.1118 14.7243C13.0143 14.7705 12.9168 14.7705 12.8681 14.7705Z" fill="white"/>
<path id="Vector_2" d="M6.39986 15.0003H6.28134C5.98504 14.9429 5.74801 14.7708 5.62949 14.5413L3.08134 9.37733C2.90356 8.97569 3.08134 8.51668 3.49616 8.28717C3.91097 8.11504 4.38504 8.28717 4.62208 8.68881L6.6369 12.7626L7.99986 11.2708C8.29615 10.9265 8.82949 10.9265 9.18504 11.2134C9.5406 11.5003 9.5406 12.0167 9.2443 12.3609L7.05171 14.7708C6.87393 14.8855 6.6369 15.0003 6.39986 15.0003Z" fill="white"/>
</g>
</g>
</svg>
