<svg width="16" height="16" viewBox="0 0 16 16" fill="none" xmlns="http://www.w3.org/2000/svg">
<g id="icon/&#233;&#130;&#174;&#231;&#174;&#177;">
<path id="Union" fill-rule="evenodd" clip-rule="evenodd" d="M12.8001 3.65789H3.19988L8 7.77838L12.8001 3.65789ZM1.61116 2.5C1.61154 2.5 1.61192 2.5 1.6123 2.5H14.3877C14.3881 2.5 14.3885 2.5 14.3888 2.5H14.7692C15.0957 2.5 15.4087 2.62199 15.6395 2.83914C15.8703 3.05629 16 3.3508 16 3.65789V12.3421C16 12.6492 15.8703 12.9437 15.6395 13.1609C15.4087 13.378 15.0957 13.5 14.7692 13.5H1.23077C0.904349 13.5 0.591298 13.378 0.360484 13.1609C0.12967 12.9437 0 12.6492 0 12.3421V3.65789C0 3.3508 0.12967 3.05629 0.360484 2.83914C0.591298 2.62199 0.904349 2.5 1.23077 2.5H1.61116ZM14.6041 3.65789H14.7692V12.3421H1.23077V3.65789H1.39652L7.16988 8.61469C7.39591 8.80884 7.69231 8.91667 8 8.91667C8.30769 8.91667 8.60409 8.80884 8.83012 8.61469L14.6041 3.65789Z" fill="white"/>
</g>
</svg>
